<svg xmlns="http://www.w3.org/2000/svg" xmlns:xlink="http://www.w3.org/1999/xlink" width="500" zoomAndPan="magnify" viewBox="0 0 375 374.999991" height="500" preserveAspectRatio="xMidYMid meet" version="1.0"><defs><clipPath id="6a627056c8"><path d="M 85.664062 85.664062 L 289.664062 85.664062 L 289.664062 289.664062 L 85.664062 289.664062 Z M 85.664062 85.664062 " clip-rule="nonzero"/></clipPath></defs><g clip-path="url(#6a627056c8)"><path fill="#03a837" d="M 289.664062 267 C 289.664062 279.515625 279.515625 289.664062 267 289.664062 L 108.332031 289.664062 C 95.816406 289.664062 85.664062 279.515625 85.664062 267 L 85.664062 108.332031 C 85.664062 95.816406 95.816406 85.664062 108.332031 85.664062 L 267 85.664062 C 279.515625 85.664062 289.664062 95.816406 289.664062 108.332031 Z M 289.664062 267 " fill-opacity="1" fill-rule="nonzero"/></g><path fill="#ffffff" d="M 251.585938 121.71875 C 245.035156 117.460938 236.261719 119.324219 231.992188 125.886719 L 170.304688 220.96875 L 141.804688 194.617188 C 136.058594 189.304688 127.09375 189.660156 121.785156 195.402344 C 116.476562 201.148438 116.828125 210.113281 122.574219 215.421875 L 163.425781 253.195312 C 166.144531 255.71875 169.601562 256.964844 173.035156 256.964844 C 176.847656 256.964844 181.726562 255.367188 184.929688 250.507812 C 186.808594 247.640625 255.761719 141.3125 255.761719 141.3125 C 260.019531 134.746094 258.148438 125.972656 251.585938 121.71875 Z M 251.585938 121.71875 " fill-opacity="1" fill-rule="nonzero"/></svg>