<svg xmlns="http://www.w3.org/2000/svg" xmlns:xlink="http://www.w3.org/1999/xlink" width="500" zoomAndPan="magnify" viewBox="0 0 375 374.999991" height="500" preserveAspectRatio="xMidYMid meet" version="1.0"><defs><clipPath id="11cce9dc80"><path d="M 19.070312 37.125 L 355.945312 37.125 L 355.945312 337.84375 L 19.070312 337.84375 Z M 19.070312 37.125 " clip-rule="nonzero"/></clipPath></defs><g clip-path="url(#11cce9dc80)"><path fill="#ffdd00" d="M 351.667969 289.753906 L 215.238281 53.152344 C 209.535156 43.265625 198.910156 37.121094 187.507812 37.121094 C 176.105469 37.121094 165.480469 43.265625 159.777344 53.152344 L 23.34375 289.753906 C 17.644531 299.640625 17.644531 311.925781 23.34375 321.816406 C 29.046875 331.699219 39.675781 337.84375 51.074219 337.84375 L 323.9375 337.84375 C 335.34375 337.84375 345.96875 331.699219 351.667969 321.816406 C 357.371094 311.929688 357.371094 299.644531 351.667969 289.753906 " fill-opacity="1" fill-rule="nonzero"/></g><path fill="#000000" d="M 326.195312 306.855469 C 325.558594 307.96875 324.40625 308.628906 323.121094 308.628906 L 51.890625 308.628906 C 50.609375 308.628906 49.460938 307.96875 48.816406 306.855469 C 48.175781 305.742188 48.175781 304.410156 48.816406 303.296875 L 184.433594 68.113281 C 185.074219 67 186.226562 66.335938 187.507812 66.335938 C 188.792969 66.335938 189.941406 67 190.582031 68.113281 L 326.195312 303.296875 C 326.839844 304.410156 326.839844 305.742188 326.195312 306.855469 Z M 336.808594 297.164062 L 201.195312 61.976562 C 198.382812 57.097656 193.132812 54.066406 187.507812 54.066406 C 181.878906 54.066406 176.636719 57.097656 173.820312 61.976562 L 38.203125 297.164062 C 35.390625 302.042969 35.390625 308.109375 38.203125 312.988281 C 41.019531 317.867188 46.261719 320.902344 51.890625 320.902344 L 323.121094 320.902344 C 328.75 320.902344 333.992188 317.867188 336.808594 312.988281 C 339.625 308.109375 339.625 302.042969 336.808594 297.164062 " fill-opacity="1" fill-rule="nonzero"/><path fill="#000000" d="M 198.195312 235.003906 C 198.132812 235.652344 197.9375 236.238281 197.617188 236.753906 C 197.289062 237.273438 196.722656 237.710938 195.914062 238.066406 C 195.101562 238.425781 194.003906 238.699219 192.609375 238.894531 C 191.214844 239.089844 189.515625 239.1875 187.507812 239.1875 C 185.433594 239.1875 183.71875 239.089844 182.355469 238.894531 C 180.996094 238.699219 179.910156 238.425781 179.097656 238.066406 C 178.289062 237.710938 177.722656 237.273438 177.402344 236.753906 C 177.074219 236.238281 176.878906 235.652344 176.816406 235.003906 L 174.289062 146.648438 C 174.289062 145.804688 174.484375 145.058594 174.875 144.410156 C 175.261719 143.761719 175.957031 143.226562 176.964844 142.804688 C 177.96875 142.382812 179.328125 142.074219 181.046875 141.878906 C 182.757812 141.6875 184.914062 141.589844 187.507812 141.589844 C 190.097656 141.589844 192.238281 141.699219 193.921875 141.929688 C 195.605469 142.15625 196.949219 142.480469 197.957031 142.902344 C 198.957031 143.324219 199.671875 143.84375 200.09375 144.457031 C 200.511719 145.074219 200.722656 145.804688 200.722656 146.648438 Z M 201.210938 263.511719 C 201.210938 266.175781 201 268.414062 200.578125 270.226562 C 200.160156 272.042969 199.414062 273.503906 198.34375 274.605469 C 197.277344 275.710938 195.863281 276.503906 194.117188 276.988281 C 192.367188 277.476562 190.164062 277.71875 187.507812 277.71875 C 184.851562 277.71875 182.628906 277.476562 180.851562 276.988281 C 179.066406 276.503906 177.660156 275.710938 176.621094 274.605469 C 175.585938 273.503906 174.855469 272.042969 174.4375 270.226562 C 174.015625 268.414062 173.804688 266.175781 173.804688 263.511719 C 173.804688 260.789062 174.015625 258.503906 174.4375 256.652344 C 174.855469 254.804688 175.585938 253.3125 176.621094 252.179688 C 177.660156 251.042969 179.066406 250.230469 180.851562 249.742188 C 182.628906 249.257812 184.851562 249.015625 187.507812 249.015625 C 190.164062 249.015625 192.367188 249.257812 194.117188 249.742188 C 195.863281 250.230469 197.277344 251.042969 198.34375 252.179688 C 199.414062 253.3125 200.160156 254.804688 200.578125 256.652344 C 201 258.503906 201.210938 260.789062 201.210938 263.511719 " fill-opacity="1" fill-rule="nonzero"/></svg>